HIERARCHY
ROOT Hips
{
	OFFSET 0.000000 0.000000 0.000000
	CHANNELS 6 Xposition Yposition Zposition Zrotation Yrotation Xrotation 
	JOINT LeftUpLeg_virtual
	{
		OFFSET 0.000000 0.000000 0.000000
		CHANNELS 3 Zrotation Yrotation Xrotation
		JOINT LeftUpLeg
		{
			OFFSET 8.479694 -4.795517 -0.379053
			CHANNELS 3 Zrotation Yrotation Xrotation
			JOINT LeftLeg
			{
				OFFSET 0.485052 -32.551468 0.112863
				CHANNELS 3 Zrotation Yrotation Xrotation
				JOINT LeftFoot
				{
					OFFSET 0.438033 -32.635670 -3.012641
					CHANNELS 3 Zrotation Yrotation Xrotation
					JOINT LeftToeBase
					{
						OFFSET 0.970169 -13.225353 11.864223
						CHANNELS 3 Zrotation Yrotation Xrotation
						End Site
						{
							OFFSET 0.000000 0.000000 0.000000
						}
					}
				}
			}
		}
	}
	JOINT RightUpLeg_virtual
	{
		OFFSET 0.000000 0.000000 0.000000
		CHANNELS 3 Zrotation Yrotation Xrotation
		JOINT RightUpLeg
		{
			OFFSET -8.479694 -4.795517 -0.379053
			CHANNELS 3 Zrotation Yrotation Xrotation
			JOINT RightLeg
			{
				OFFSET -0.484100 -32.551483 0.112903
				CHANNELS 3 Zrotation Yrotation Xrotation
				JOINT RightFoot
				{
					OFFSET -0.438985 -32.635651 -3.012681
					CHANNELS 3 Zrotation Yrotation Xrotation
					JOINT RightToeBase
					{
						OFFSET -0.970169 -13.225354 11.864223
						CHANNELS 3 Zrotation Yrotation Xrotation
						End Site
						{
							OFFSET 0.000000 0.000000 0.000000
						}
					}
				}
			}
		}
	}
	JOINT Spine_virtual
	{
		OFFSET 0.000000 0.000000 0.000000
		CHANNELS 3 Zrotation Yrotation Xrotation
		JOINT Spine
		{
			OFFSET 0.000000 7.722015 1.166203
			CHANNELS 3 Zrotation Yrotation Xrotation
			JOINT Spine1
			{
				OFFSET 0.000000 12.024086 0.248766
				CHANNELS 3 Zrotation Yrotation Xrotation
				JOINT Spine2
				{
					OFFSET -0.000000 11.503036 -0.491240
					CHANNELS 3 Zrotation Yrotation Xrotation
					JOINT Neck_virtual
					{
						OFFSET 0.000000 0.000000 0.000000
						CHANNELS 3 Zrotation Yrotation Xrotation
						JOINT Neck
						{
							OFFSET 0.000000 18.430687 -3.123054
							CHANNELS 3 Zrotation Yrotation Xrotation
							JOINT Head
							{
								OFFSET -0.000000 9.051071 1.034021
								CHANNELS 3 Zrotation Yrotation Xrotation
								End Site
								{
									OFFSET 0.000000 0.000000 0.000000
								}
							}
						}
					}
					JOINT LeftShoulder_virtual
					{
						OFFSET 0.000000 0.000000 0.000000
						CHANNELS 3 Zrotation Yrotation Xrotation
						JOINT LeftShoulder
						{
							OFFSET 6.197824 13.665230 -4.064723
							CHANNELS 3 Zrotation Yrotation Xrotation
							JOINT LeftArm
							{
								OFFSET 7.778132 -0.187073 -1.709282
								CHANNELS 3 Zrotation Yrotation Xrotation
								JOINT LeftForeArm
								{
									OFFSET 21.954697 0.000000 -2.041093
									CHANNELS 3 Zrotation Yrotation Xrotation
									JOINT LeftHand
									{
										OFFSET 22.992908 0.000000 -0.870901
										CHANNELS 3 Zrotation Yrotation Xrotation
										End Site
										{
											OFFSET 0.000000 0.000000 0.000000
										}
									}
								}
							}
						}
					}
					JOINT RightShoulder_virtual
					{
						OFFSET 0.000000 0.000000 0.000000
						CHANNELS 3 Zrotation Yrotation Xrotation
						JOINT RightShoulder
						{
							OFFSET -6.197824 13.665230 -4.064723
							CHANNELS 3 Zrotation Yrotation Xrotation
							JOINT RightArm
							{
								OFFSET -7.778132 -0.187073 -1.709282
								CHANNELS 3 Zrotation Yrotation Xrotation
								JOINT RightForeArm
								{
									OFFSET -21.954697 0.000000 -2.041093
									CHANNELS 3 Zrotation Yrotation Xrotation
									JOINT RightHand
									{
										OFFSET -22.992908 0.000000 -0.870901
										CHANNELS 3 Zrotation Yrotation Xrotation
										End Site
										{
											OFFSET 0.000000 0.000000 0.000000
										}
									}
								}
							}
						}
					}
				}
			}
		}
	}
}
MOTION
Frames: 13
Frame Time: 0.033333
3.447487 78.878540 -35.583523 179.803897 2.776476 179.920870 -0.391812 -1.398938 10.476615 0.042667 -2.445241 -33.032065 5.923101 4.282118 26.142634 -0.129656 -2.936027 -8.412256 0.000000 0.000000 0.000000 4.096312 -2.595238 10.727559 -3.715189 5.049172 -35.156640 1.029343 5.390568 34.502000 12.035037 6.117333 -10.467588 0.000000 0.000000 0.000000 4.711485 1.409800 -1.740914 -2.867320 -3.249419 -4.949617 -1.586993 -1.236388 10.866694 0.021899 0.055593 -0.012812 -1.912933 0.153677 11.159160 -1.541742 -0.316515 -1.799724 0.000000 0.000000 0.000000 -0.257716 0.846452 8.339505 -11.388663 -8.979645 3.115117 -55.397793 -6.311570 19.211504 0.846725 -24.660881 4.014601 0.000000 0.000000 0.000000 -4.639408 2.335960 7.602126 27.366350 4.455770 9.732748 49.250377 6.238274 9.040317 -5.782689 25.664410 -3.264976 0.000000 0.000000 0.000000 
3.404050 78.854393 -35.705647 179.690051 2.982318 179.855984 -0.429978 -1.433958 10.393155 0.063559 -2.484887 -32.887737 6.145117 4.420195 26.287183 0.153070 -2.597559 -7.971585 0.000000 0.000000 0.000000 4.176640 -2.603732 10.625097 -3.554531 4.917768 -35.069811 1.224387 5.363313 34.220713 12.428939 6.511115 -10.211614 0.000000 0.000000 0.000000 4.576981 1.469267 -1.899702 -2.878398 -3.191249 -5.022724 -1.577870 -1.175656 10.879773 0.004621 0.135242 -0.059976 -1.843372 0.324702 11.196897 -1.446377 -0.345501 -1.776392 0.000000 0.000000 0.000000 -0.166890 0.797107 8.402489 -11.466075 -8.980139 3.118080 -55.515286 -6.287995 19.115609 0.846094 -24.619152 3.941505 0.000000 0.000000 0.000000 -4.603976 2.274869 7.676992 27.271062 4.455720 9.766087 49.223538 6.265318 9.215621 -5.849121 25.644051 -3.459261 0.000000 0.000000 0.000000 
3.328493 78.830971 -35.875599 179.648291 2.671679 179.886323 -0.484572 -1.473447 10.147820 0.020943 -2.647324 -32.636249 6.122780 4.471394 26.510951 0.146705 -2.639872 -8.413953 0.000000 0.000000 0.000000 4.209041 -2.370596 10.630366 -3.633883 5.514986 -34.860958 1.670641 6.145647 33.981031 13.360767 7.513708 -10.733549 0.000000 0.000000 0.000000 4.545764 1.396737 -2.210491 -2.883353 -3.189542 -5.201334 -1.609624 -1.239589 10.890538 0.067910 0.045220 -0.001922 -1.892274 0.178500 11.179288 -1.463052 -0.321392 -1.703926 0.000000 0.000000 0.000000 -0.234011 0.813955 8.350259 -11.618252 -8.866864 3.109203 -55.913650 -6.203804 18.829757 0.831328 -24.525464 3.962137 0.000000 0.000000 0.000000 -4.701273 2.298389 7.680801 27.248753 4.451512 9.763462 49.181522 6.182557 9.496471 -5.813425 25.664287 -3.396438 0.000000 0.000000 0.000000 
3.262826 78.802246 -36.053947 179.689955 2.516405 179.856694 -0.485725 -1.436419 10.292506 0.006592 -2.703791 -32.747612 6.123239 4.477429 26.781815 0.127464 -2.672632 -8.729722 0.000000 0.000000 0.000000 4.141827 -2.336396 10.615580 -3.586931 5.478253 -34.595099 1.664841 6.166314 33.974051 13.427541 7.505815 -10.961230 0.000000 0.000000 0.000000 4.617165 1.452531 -2.468900 -2.877587 -3.107560 -5.353993 -1.662181 -1.203753 10.891097 0.039262 0.032440 -0.014784 -1.818344 0.442423 11.173934 -1.331627 -0.375495 -1.617481 0.000000 0.000000 0.000000 -0.306390 0.779950 8.380979 -11.775908 -8.748212 3.044353 -56.353630 -6.184270 18.332935 0.933538 -24.344874 3.841994 0.000000 0.000000 0.000000 -4.627679 2.312247 7.685642 27.273400 4.472746 9.758757 49.127256 5.990901 9.998177 -5.864531 25.664571 -3.399753 0.000000 0.000000 0.000000 
3.214389 78.779312 -36.225132 179.692305 2.259424 179.888263 -0.485617 -1.380865 10.238103 -0.021677 -2.790752 -32.720626 6.098636 4.517014 26.956177 0.062011 -2.745650 -9.018463 0.000000 0.000000 0.000000 4.063953 -2.306143 10.609191 -3.557947 5.408248 -34.355319 1.655948 6.197208 33.927339 13.482823 7.473916 -11.259091 0.000000 0.000000 0.000000 4.612456 1.471244 -2.707506 -2.881845 -3.074584 -5.502381 -1.635553 -1.221504 10.815687 0.074790 0.072149 -0.030374 -1.943003 0.235890 11.223917 -1.378203 -0.275512 -1.510996 0.000000 0.000000 0.000000 -0.332774 0.773188 8.409378 -11.956121 -8.605344 3.017976 -56.712174 -6.136351 17.828967 0.873395 -24.252098 3.807918 0.000000 0.000000 0.000000 -4.661970 2.296135 7.784323 27.294604 4.470751 9.807534 49.012198 6.000002 10.279921 -5.917823 25.703011 -3.412516 0.000000 0.000000 0.000000 
3.192226 78.773529 -36.387432 179.716197 2.000958 179.891104 -0.479755 -1.349367 10.248847 -0.012957 -2.895540 -32.678111 6.097878 4.499672 27.075556 -0.001169 -2.776965 -9.109933 0.000000 0.000000 0.000000 4.019085 -2.268992 10.608617 -3.507713 5.342352 -34.113103 1.636642 6.185485 33.825528 13.528924 7.393938 -11.426175 0.000000 0.000000 0.000000 4.673746 1.504007 -2.899396 -2.919909 -3.072015 -5.701531 -1.668832 -1.240333 10.893833 0.027562 0.061532 -0.005404 -1.861197 0.292689 11.180304 -1.353130 -0.255887 -1.416467 0.000000 0.000000 0.000000 -0.363208 0.821086 8.377380 -11.993972 -8.396469 2.916766 -57.031369 -6.119348 17.455889 1.013278 -23.983424 3.741282 0.000000 0.000000 0.000000 -4.627202 2.336861 7.727594 27.253746 4.563034 9.809606 48.939501 5.889103 10.703552 -5.894790 25.856648 -3.360618 0.000000 0.000000 0.000000 
3.219800 78.779022 -36.522907 179.711703 1.775916 179.896664 -0.478524 -1.351673 10.183296 -0.001014 -2.970552 -32.539551 6.095122 4.494689 27.114058 -0.095265 -2.826239 -9.252127 0.000000 0.000000 0.000000 3.992797 -2.250208 10.582739 -3.446888 5.238125 -33.960100 1.631669 6.184720 33.801954 13.559292 7.304204 -11.527971 0.000000 0.000000 0.000000 4.658653 1.552300 -2.986261 -2.974033 -3.033741 -5.886678 -1.634294 -1.250356 10.848505 0.077681 0.091043 -0.043888 -1.925834 0.112129 11.247294 -1.459152 -0.131480 -1.282072 0.000000 0.000000 0.000000 -0.326898 0.764172 8.456721 -12.053008 -8.404298 2.925675 -57.141171 -6.132108 17.360046 1.023040 -23.874610 3.791228 0.000000 0.000000 0.000000 -4.643222 2.170291 7.828992 27.252316 4.721985 9.858257 48.827086 5.934518 11.120566 -5.881856 25.938262 -3.325388 0.000000 0.000000 0.000000 
3.258645 78.783684 -36.620888 179.733218 1.579193 179.884425 -0.445404 -1.357927 10.152465 0.030746 -3.055508 -32.429438 6.138780 4.483586 27.181481 -0.191594 -2.872515 -9.412806 0.000000 0.000000 0.000000 4.010733 -2.248737 10.572612 -3.379150 5.157820 -33.891388 1.640934 6.219285 33.883728 13.555416 7.215062 -11.592767 0.000000 0.000000 0.000000 4.687661 1.555979 -3.016047 -3.009394 -3.043460 -6.046042 -1.634591 -1.296945 10.795927 0.036842 0.112083 -0.021318 -1.812329 0.275555 11.155783 -1.407775 -0.108065 -1.169789 0.000000 0.000000 0.000000 -0.321503 0.751132 8.350294 -12.039926 -8.371396 2.846557 -57.125411 -6.131771 17.535558 1.034185 -23.758834 3.843427 0.000000 0.000000 0.000000 -4.530935 2.224799 7.747159 27.141041 4.924849 9.821628 48.709637 5.741455 11.374886 -5.890128 26.035932 -3.315763 0.000000 0.000000 0.000000 
3.317374 78.783875 -36.692947 179.723027 1.429340 179.910557 -0.417853 -1.423151 10.151397 0.053807 -3.100995 -32.439574 6.203378 4.551744 27.227519 -0.314817 -2.937872 -9.425968 0.000000 0.000000 0.000000 4.017081 -2.289377 10.571856 -3.302105 5.052098 -33.941925 1.673290 6.285729 34.056969 13.541850 7.159794 -11.598380 0.000000 0.000000 0.000000 4.672949 1.479139 -3.040873 -3.033833 -2.965874 -6.214092 -1.499923 -1.334910 10.718542 0.013766 0.063426 -0.023702 -1.895223 0.118805 11.101686 -1.519490 0.009483 -1.038032 0.000000 0.000000 0.000000 -0.331626 0.745589 8.326351 -12.109651 -8.375256 2.920113 -56.827987 -6.298392 18.096680 1.087444 -23.717227 3.850469 0.000000 0.000000 0.000000 -4.525726 2.202989 7.722638 27.010786 5.208637 9.833965 48.641564 5.583982 11.601462 -5.843836 26.064646 -3.357793 0.000000 0.000000 0.000000 
3.386836 78.778847 -36.720177 179.725240 1.495794 179.849591 -0.390394 -1.430357 10.225475 0.088678 -3.132829 -32.467547 6.332139 4.635041 27.334933 -0.407505 -2.983566 -9.426067 0.000000 0.000000 0.000000 4.048814 -2.329167 10.584328 -3.219704 5.006518 -33.951853 1.718576 6.375043 34.187993 13.507017 7.121425 -11.581783 0.000000 0.000000 0.000000 4.730887 1.432376 -3.007886 -2.993841 -2.907886 -6.302508 -1.562676 -1.348842 10.651204 -0.045342 0.057508 -0.088130 -1.696655 0.266238 11.101027 -1.495110 0.021362 -0.898153 0.000000 0.000000 0.000000 -0.179169 0.747302 8.304958 -12.148787 -8.392633 2.938883 -56.492686 -6.441271 18.678711 1.018694 -23.803146 3.964708 0.000000 0.000000 0.000000 -4.373513 2.236388 7.740075 26.922844 5.546308 9.847024 48.539515 5.287472 11.672846 -5.832458 26.130239 -3.440891 0.000000 0.000000 0.000000 
3.439147 78.782806 -36.714760 179.746236 1.652798 179.916581 -0.380931 -1.446672 10.193859 0.133311 -3.139877 -32.614413 6.510684 4.692278 27.533408 -0.488358 -3.009925 -9.367886 0.000000 0.000000 0.000000 4.074312 -2.300664 10.540886 -3.149966 5.028767 -34.017132 1.759946 6.472833 34.225040 13.437071 7.078145 -11.548406 0.000000 0.000000 0.000000 4.804552 1.460137 -3.094645 -2.949854 -2.756994 -6.374138 -1.524813 -1.303852 10.591138 0.028061 0.088087 -0.022866 -1.662751 0.551052 11.061053 -1.423284 -0.052353 -0.776072 0.000000 0.000000 0.000000 -0.282420 0.627481 8.275187 -12.137604 -8.385178 2.933094 -56.029824 -6.598587 19.145029 0.995750 -23.936442 3.960358 0.000000 0.000000 0.000000 -4.451132 2.159618 7.672177 26.849602 5.762537 9.881183 48.559117 4.908525 11.519420 -5.739443 26.302212 -3.418288 0.000000 0.000000 0.000000 
3.527891 78.795067 -36.683578 179.737015 1.931435 179.835234 -0.423054 -1.407511 10.149244 0.180805 -3.105793 -32.651142 6.718566 4.718274 27.757535 -0.577897 -3.044011 -9.254226 0.000000 0.000000 0.000000 4.062274 -2.236586 10.507006 -3.026874 5.057968 -33.867128 1.788420 6.559408 34.170945 13.380704 7.016347 -11.437700 0.000000 0.000000 0.000000 4.827569 1.544648 -3.106112 -2.907146 -2.699300 -6.325034 -1.481810 -1.327545 10.620277 0.033312 0.094958 -0.023083 -1.661047 0.187597 11.058201 -1.491794 -0.041599 -0.558469 0.000000 0.000000 0.000000 -0.238880 0.674791 8.292482 -12.119955 -8.438137 2.904813 -55.538826 -6.756282 19.524217 0.805300 -24.145451 3.882236 0.000000 0.000000 0.000000 -4.476505 2.128153 7.636309 26.873897 5.944268 9.923861 48.655488 4.621064 11.268093 -5.838356 26.198345 -3.633362 0.000000 0.000000 0.000000 
3.639751 78.805405 -36.662861 179.745212 2.176527 179.886323 -0.489511 -1.324802 9.992469 0.271683 -3.032117 -32.702065 6.933467 4.672346 28.102735 -0.696551 -3.094104 -9.189027 0.000000 0.000000 0.000000 4.017568 -2.085297 10.382666 -2.849108 5.154807 -33.749792 1.799234 6.663118 34.081975 13.313819 6.920152 -11.389010 0.000000 0.000000 0.000000 4.823161 1.674732 -3.248717 -2.874090 -2.653902 -6.235191 -1.471188 -1.371206 10.559145 0.024005 0.114301 -0.045408 -1.623627 0.271481 11.153219 -1.451342 -0.168929 -0.369743 0.000000 0.000000 0.000000 -0.228339 0.647707 8.353327 -12.099542 -8.420780 2.943373 -55.127464 -6.893220 19.874764 0.664436 -24.410990 3.979542 0.000000 0.000000 0.000000 -4.458954 2.079947 7.743001 27.062116 6.165169 9.869997 48.702602 4.203146 10.739895 -5.788257 26.014264 -3.646127 0.000000 0.000000 0.000000 
